<svg width="24" height="24" viewBox="0 0 24 24" fill="none" xmlns="http://www.w3.org/2000/svg">
<path d="M21.75 10.875H20.5519C20.4544 10.1271 20.2583 9.39545 19.9688 8.69906L21.0075 8.09906C21.1383 8.02669 21.2533 7.92899 21.3459 7.81166C21.4385 7.69432 21.5068 7.55972 21.5468 7.4157C21.5867 7.27169 21.5976 7.12115 21.5788 6.97288C21.5599 6.82461 21.5117 6.68158 21.437 6.55215C21.3622 6.42271 21.2625 6.30947 21.1435 6.21904C21.0245 6.1286 20.8886 6.06279 20.7439 6.02544C20.5992 5.98808 20.4485 5.97994 20.3006 6.00149C20.1527 6.02304 20.0105 6.07385 19.8825 6.15094L18.8438 6.75C18.3838 6.15193 17.8481 5.61619 17.25 5.15625L17.8509 4.11469C17.928 3.98664 17.9788 3.84451 18.0004 3.69661C18.0219 3.54871 18.0138 3.398 17.9764 3.25327C17.9391 3.10855 17.8733 2.97273 17.7828 2.85373C17.6924 2.73473 17.5792 2.63494 17.4497 2.56019C17.3203 2.48545 17.1773 2.43725 17.029 2.4184C16.8807 2.39955 16.7302 2.41044 16.5862 2.45042C16.4422 2.49041 16.3076 2.55869 16.1902 2.65128C16.0729 2.74387 15.9752 2.85891 15.9028 2.98969L15.3009 4.03125C14.6046 3.74165 13.8729 3.54557 13.125 3.44812V2.25C13.125 1.95163 13.0065 1.66548 12.7955 1.4545C12.5845 1.24353 12.2984 1.125 12 1.125C11.7016 1.125 11.4155 1.24353 11.2045 1.4545C10.9935 1.66548 10.875 1.95163 10.875 2.25V3.44812C10.1271 3.54557 9.39545 3.74165 8.69906 4.03125L8.09906 2.9925C7.947 2.73993 7.70187 2.55714 7.41641 2.48346C7.13094 2.40979 6.82797 2.45111 6.57267 2.59854C6.31736 2.74598 6.13014 2.98773 6.05127 3.2718C5.9724 3.55587 6.00819 3.85955 6.15094 4.1175L6.75 5.15625C6.15193 5.61619 5.61619 6.15193 5.15625 6.75L4.11844 6.15094C3.86049 6.00819 3.55681 5.9724 3.27274 6.05127C2.98867 6.13014 2.74691 6.31736 2.59948 6.57267C2.45205 6.82797 2.41073 7.13094 2.4844 7.41641C2.55808 7.70187 2.74087 7.947 2.99344 8.09906L4.03125 8.69906C3.74165 9.39545 3.54557 10.1271 3.44812 10.875H2.25C1.95163 10.875 1.66548 10.9935 1.4545 11.2045C1.24353 11.4155 1.125 11.7016 1.125 12C1.125 12.2984 1.24353 12.5845 1.4545 12.7955C1.66548 13.0065 1.95163 13.125 2.25 13.125H3.44812C3.54557 13.8729 3.74165 14.6046 4.03125 15.3009L2.9925 15.9009C2.86173 15.9733 2.74668 16.071 2.65409 16.1883C2.5615 16.3057 2.49322 16.4403 2.45324 16.5843C2.41325 16.7283 2.40236 16.8789 2.42121 17.0271C2.44006 17.1754 2.48826 17.3184 2.56301 17.4479C2.63775 17.5773 2.73754 17.6905 2.85654 17.781C2.97554 17.8714 3.11137 17.9372 3.25609 17.9746C3.40081 18.0119 3.55152 18.0201 3.69942 17.9985C3.84733 17.977 3.98945 17.9262 4.1175 17.8491L5.15625 17.25C5.61619 17.8481 6.15193 18.3838 6.75 18.8438L6.14906 19.8853C6.07197 20.0134 6.02117 20.1555 5.99962 20.3034C5.97807 20.4513 5.98621 20.602 6.02356 20.7467C6.06091 20.8914 6.12673 21.0273 6.21716 21.1463C6.3076 21.2653 6.42084 21.3651 6.55027 21.4398C6.6797 21.5145 6.82273 21.5628 6.971 21.5816C7.11927 21.6004 7.26981 21.5896 7.41383 21.5496C7.55785 21.5096 7.69245 21.4413 7.80978 21.3487C7.92711 21.2561 8.02482 21.1411 8.09719 21.0103L8.69906 19.9688C9.39545 20.2583 10.1271 20.4544 10.875 20.5519V21.75C10.875 22.0484 10.9935 22.3345 11.2045 22.5455C11.4155 22.7565 11.7016 22.875 12 22.875C12.2984 22.875 12.5845 22.7565 12.7955 22.5455C13.0065 22.3345 13.125 22.0484 13.125 21.75V20.5519C13.8729 20.4544 14.6046 20.2583 15.3009 19.9688L15.9009 21.0075C16.053 21.2601 16.2981 21.4429 16.5836 21.5165C16.8691 21.5902 17.172 21.5489 17.4273 21.4015C17.6826 21.254 17.8699 21.0123 17.9487 20.7282C18.0276 20.4441 17.9918 20.1404 17.8491 19.8825L17.25 18.8438C17.8481 18.3838 18.3838 17.8481 18.8438 17.25L19.8853 17.8509C20.0134 17.928 20.1555 17.9788 20.3034 18.0004C20.4513 18.0219 20.602 18.0138 20.7467 17.9764C20.8914 17.9391 21.0273 17.8733 21.1463 17.7828C21.2653 17.6924 21.3651 17.5792 21.4398 17.4497C21.5145 17.3203 21.5628 17.1773 21.5816 17.029C21.6004 16.8807 21.5896 16.7302 21.5496 16.5862C21.5096 16.4422 21.4413 16.3076 21.3487 16.1902C21.2561 16.0729 21.1411 15.9752 21.0103 15.9028L19.9688 15.3009C20.2583 14.6046 20.4544 13.8729 20.5519 13.125H21.75C22.0484 13.125 22.3345 13.0065 22.5455 12.7955C22.7565 12.5845 22.875 12.2984 22.875 12C22.875 11.7016 22.7565 11.4155 22.5455 11.2045C22.3345 10.9935 22.0484 10.875 21.75 10.875ZM12 5.625C13.4949 5.62712 14.9417 6.15377 16.0882 7.11316C17.2347 8.07256 18.0081 9.40385 18.2737 10.875H12.6487L9.83625 6C10.5302 5.75006 11.2624 5.62315 12 5.625ZM5.625 12C5.62507 11.0725 5.82781 10.1562 6.21905 9.31527C6.6103 8.47433 7.18058 7.72904 7.89 7.13156L10.7025 12L7.89 16.8684C7.18058 16.271 6.6103 15.5257 6.21905 14.6847C5.82781 13.8438 5.62507 12.9275 5.625 12ZM12 18.375C11.2627 18.3767 10.5308 18.2498 9.83719 18L12.6497 13.125H18.2747C18.009 14.5963 17.2354 15.9277 16.0888 16.8871C14.9421 17.8466 13.4951 18.3731 12 18.375Z" fill="white"/>
</svg>
