<svg width="17" height="17" viewBox="0 0 17 17" fill="none" xmlns="http://www.w3.org/2000/svg">
<path d="M7.83337 11.8333H9.16671V7.83331H7.83337V11.8333ZM8.50004 6.49998C8.68893 6.49998 8.84737 6.43598 8.97537 6.30798C9.10337 6.17998 9.16715 6.02176 9.16671 5.83331C9.16671 5.64442 9.10271 5.4862 8.97471 5.35865C8.84671 5.23109 8.68849 5.16709 8.50004 5.16665C8.31115 5.16665 8.15293 5.23065 8.02537 5.35865C7.89782 5.48665 7.83382 5.64487 7.83337 5.83331C7.83337 6.0222 7.89737 6.18065 8.02537 6.30865C8.15337 6.43665 8.3116 6.50042 8.50004 6.49998ZM8.50004 15.1666C7.57782 15.1666 6.71115 14.9915 5.90004 14.6413C5.08893 14.2911 4.38337 13.8162 3.78337 13.2166C3.18337 12.6166 2.70849 11.9111 2.35871 11.1C2.00893 10.2889 1.83382 9.4222 1.83337 8.49998C1.83337 7.57776 2.00849 6.71109 2.35871 5.89998C2.70893 5.08887 3.18382 4.38331 3.78337 3.78331C4.38337 3.18331 5.08893 2.70842 5.90004 2.35865C6.71115 2.00887 7.57782 1.83376 8.50004 1.83331C9.42226 1.83331 10.2889 2.00842 11.1 2.35865C11.9112 2.70887 12.6167 3.18376 13.2167 3.78331C13.8167 4.38331 14.2918 5.08887 14.642 5.89998C14.9923 6.71109 15.1672 7.57776 15.1667 8.49998C15.1667 9.4222 14.9916 10.2889 14.6414 11.1C14.2912 11.9111 13.8163 12.6166 13.2167 13.2166C12.6167 13.8166 11.9112 14.2918 11.1 14.642C10.2889 14.9922 9.42226 15.1671 8.50004 15.1666ZM8.50004 13.8333C9.98893 13.8333 11.25 13.3166 12.2834 12.2833C13.3167 11.25 13.8334 9.98887 13.8334 8.49998C13.8334 7.01109 13.3167 5.74998 12.2834 4.71665C11.25 3.68331 9.98893 3.16665 8.50004 3.16665C7.01115 3.16665 5.75004 3.68331 4.71671 4.71665C3.68337 5.74998 3.16671 7.01109 3.16671 8.49998C3.16671 9.98887 3.68337 11.25 4.71671 12.2833C5.75004 13.3166 7.01115 13.8333 8.50004 13.8333Z" fill="white"/>
</svg>
